<svg xmlns="http://www.w3.org/2000/svg" viewBox="0 0 760 420"><defs><linearGradient id="g" x1="0" y1="0" x2="1" y2="1"><stop stop-color="#5b8d72"/><stop offset="1" stop-color="#203f31"/></linearGradient></defs><rect width="760" height="420" rx="28" fill="url(#g)"/><circle cx="590" cy="85" r="54" fill="#eda335" opacity=".75"/><path d="M0 330c130-70 210-50 330-8 130 46 240-20 430-68v166H0z" fill="#162f25"/><g transform="translate(120 95)"><circle cx="90" cy="64" r="34" fill="#b87952"/><path d="M52 58c8-47 74-55 89 3-25-10-52-13-89-3z" fill="#26362f"/><path d="M44 123c25-27 68-27 94 0l20 118H25z" fill="#eda335"/><path d="M58 133l-26 76M123 133l26 76" stroke="#d9a47e" stroke-width="14" stroke-linecap="round"/><circle cx="78" cy="68" r="4" fill="#12251d"/><circle cx="103" cy="68" r="4" fill="#12251d"/><path d="M80 86q13 12 25 0" fill="none" stroke="#12251d" stroke-width="4" stroke-linecap="round"/></g><g transform="translate(400 75)"><circle cx="100" cy="72" r="36" fill="#9c6849"/><path d="M58 65c4-45 75-62 95 0-29-14-63-10-95 0z" fill="#39453d"/><path d="M47 133c30-31 76-31 106 0l26 120H20z" fill="#9dd0b6"/><path d="M68 144l-30 75M130 144l28 75" stroke="#9c6849" stroke-width="14" stroke-linecap="round"/><circle cx="88" cy="74" r="4" fill="#12251d"/><circle cx="113" cy="74" r="4" fill="#12251d"/><path d="M89 93q13 12 25 0" fill="none" stroke="#12251d" stroke-width="4" stroke-linecap="round"/></g></svg>
